<svg xmlns="http://www.w3.org/2000/svg" viewBox="0 0 32 32">
  <rect width="32" height="32" rx="6" fill="#0a0a0e"/>
  <!-- Squished-boomerang arch: filled tapered shape, smooth curves, no sharp corners -->
  <path d="M 4 27 C 4 -1, 28 -1, 28 27 C 28 4.33, 4 4.33, 4 27 Z" fill="#c9a961"/>
  <!-- Orion belt: three sparkle stars, middle nudged down 1 unit for natural alignment -->
  <path d="M 10 15.2 L 10.229 16.771 L 11.8 17 L 10.229 17.229 L 10 18.8 L 9.771 17.229 L 8.2 17 L 9.771 16.771 Z" fill="#d4af37"/>
  <path d="M 16 16.2 L 16.229 17.771 L 17.8 18 L 16.229 18.229 L 16 19.8 L 15.771 18.229 L 14.2 18 L 15.771 17.771 Z" fill="#d4af37"/>
  <path d="M 22 15.2 L 22.229 16.771 L 23.8 17 L 22.229 17.229 L 22 18.8 L 21.771 17.229 L 20.2 17 L 21.771 16.771 Z" fill="#d4af37"/>
</svg>
