<?xml version="1.0" encoding="utf-8"?>
<!-- Uploaded to: SVG Repo, www.svgrepo.com, Generator: SVG Repo Mixer Tools -->
<svg fill="#000000" width="800px" height="800px" viewBox="0 0 32 32" version="1.1" xmlns="http://www.w3.org/2000/svg">
<title>intel</title>
<path d="M30.238 20.203c-0.418 0-0.757 0.339-0.757 0.757s0.339 0.757 0.757 0.757c0.418 0 0.757-0.339 0.757-0.757 0-0.209-0.085-0.398-0.222-0.535v0c-0.137-0.137-0.326-0.222-0.535-0.222v0zM30.673 21.402c-0.113 0.113-0.269 0.183-0.442 0.183-0.345 0-0.625-0.28-0.625-0.625s0.278-0.623 0.622-0.625l0-0.001h0.003c0.345 0.001 0.625 0.28 0.625 0.626 0 0.173-0.070 0.329-0.183 0.442v0zM30.525 20.96c0.039-0.041 0.063-0.097 0.063-0.158 0-0.004-0-0.008-0-0.012l0 0.001c0-0.005 0.001-0.011 0.001-0.016 0-0.070-0.031-0.133-0.079-0.176l-0-0c-0.055-0.044-0.126-0.071-0.203-0.071-0.010 0-0.019 0-0.029 0.001l0.001-0h-0.34v0.873h0.162v-0.356h0.116l0.216 0.356h0.17l-0.225-0.371c0.058-0.006 0.109-0.031 0.147-0.070l0-0zM30.292 20.899h-0.192v-0.247h0.192c0.026 0.001 0.049 0.007 0.072 0.016l-0.002-0.001c0.020 0.007 0.036 0.020 0.046 0.038l0 0c0.016 0.016 0.015 0.039 0.015 0.070 0 0.001 0 0.002 0 0.002 0 0.024-0.006 0.047-0.015 0.067l0-0.001c-0.013 0.015-0.029 0.028-0.045 0.038l-0.001 0c-0.021 0.008-0.044 0.014-0.069 0.016l-0.001 0zM1.004 10.345h2.171v2.171h-2.171v-2.171zM8.846 13.673v0.001c-0.013-0-0.028-0-0.043-0-0.476 0-0.927 0.111-1.327 0.309l0.017-0.008c-0.411 0.203-0.754 0.485-1.022 0.828l-0.005 0.006-0.109 0.146v-1.127h-2.032v7.818h2.048v-4.016c-0.002-0.036-0.003-0.077-0.003-0.119 0-0.574 0.206-1.099 0.547-1.507l-0.003 0.004c0.323-0.343 0.78-0.556 1.286-0.556 0.006 0 0.013 0 0.019 0h-0.001c0.033-0.002 0.072-0.004 0.111-0.004 0.49 0 0.932 0.209 1.24 0.543l0.001 0.001c0.283 0.377 0.452 0.853 0.452 1.369 0 0.046-0.001 0.092-0.004 0.137l0-0.006v4.154h2.078v-4.434c0.005-0.071 0.008-0.154 0.008-0.238 0-0.907-0.327-1.737-0.869-2.38l0.005 0.005c-0.564-0.576-1.35-0.932-2.219-0.932-0.062 0-0.124 0.002-0.185 0.005l0.008-0zM26.522 10.183h2.063v11.472h-2.063v-11.472zM24.336 14.857c-0.352-0.364-0.777-0.657-1.25-0.855l-0.025-0.009c-0.467-0.196-1.011-0.31-1.581-0.31-0.020 0-0.041 0-0.061 0l0.003-0c-0.009-0-0.020-0-0.032-0-1.663 0-3.091 1.008-3.705 2.447l-0.010 0.026c-0.201 0.456-0.318 0.989-0.318 1.548 0 0.015 0 0.030 0 0.045l-0-0.002c-0 0.009-0 0.020-0 0.031 0 0.562 0.111 1.099 0.311 1.589l-0.010-0.028c0.205 0.501 0.49 0.929 0.843 1.29l-0.001-0.001c0.362 0.365 0.797 0.658 1.28 0.857l0.026 0.009c0.483 0.206 1.045 0.325 1.635 0.325 0.015 0 0.030-0 0.045-0l-0.002 0c0.035 0.001 0.077 0.002 0.119 0.002 1.339 0 2.54-0.594 3.353-1.533l0.005-0.006-1.483-1.13c-0.493 0.535-1.196 0.869-1.978 0.873h-0.001c-0.033 0.002-0.071 0.003-0.11 0.003-0.49 0-0.945-0.151-1.32-0.409l0.008 0.005c-0.357-0.265-0.62-0.641-0.738-1.076l-0.003-0.014-0.024-0.070h6.142v-0.733c0-0.007 0-0.015 0-0.023 0-0.561-0.108-1.098-0.304-1.589l0.010 0.029c-0.206-0.499-0.485-0.927-0.828-1.293l0.002 0.002zM19.33 17.012c0.159-0.906 0.94-1.585 1.879-1.585 0.067 0 0.133 0.003 0.198 0.010l-0.008-0.001c0.060-0.007 0.13-0.011 0.2-0.011 0.937 0 1.717 0.676 1.877 1.567l0.002 0.012zM15.289 10.785h-2.063v7.564c-0.001 0.038-0.001 0.083-0.001 0.128 0 0.527 0.060 1.040 0.172 1.533l-0.009-0.046c0.095 0.404 0.287 0.754 0.551 1.036l-0.001-0.001c0.27 0.266 0.609 0.463 0.988 0.56l0.015 0.003c0.427 0.109 0.918 0.172 1.424 0.172 0.051 0 0.102-0.001 0.152-0.002l-0.008 0h0.27v-1.916c-0.023 0-0.050 0.001-0.076 0.001-0.234 0-0.465-0.017-0.69-0.050l0.026 0.003c-0.189-0.018-0.358-0.097-0.488-0.217l0.001 0.001c-0.114-0.126-0.192-0.288-0.216-0.467l-0-0.004c-0.030-0.205-0.047-0.442-0.047-0.683 0-0.026 0-0.052 0.001-0.078l-0 0.004v-2.727h1.491v-1.77h-1.491zM1.058 13.829h2.063v7.818h-2.063v-7.818z"></path>
</svg>