<?xml version="1.0" encoding="utf-8"?>
<!-- Generator: Adobe Illustrator 16.0.3, SVG Export Plug-In . SVG Version: 6.00 Build 0)  -->
<!DOCTYPE svg PUBLIC "-//W3C//DTD SVG 1.1//EN" "http://www.w3.org/Graphics/SVG/1.1/DTD/svg11.dtd" [
	<!ENTITY ns_flows "http://ns.adobe.com/Flows/1.0/">
	<!ENTITY ns_extend "http://ns.adobe.com/Extensibility/1.0/">
	<!ENTITY ns_ai "http://ns.adobe.com/AdobeIllustrator/10.0/">
	<!ENTITY ns_graphs "http://ns.adobe.com/Graphs/1.0/">
]>
<svg version="1.1" id="Capa_1" xmlns:x="&ns_extend;" xmlns:i="&ns_ai;" xmlns:graph="&ns_graphs;"
	 xmlns="http://www.w3.org/2000/svg" xmlns:xlink="http://www.w3.org/1999/xlink" xmlns:a="http://ns.adobe.com/AdobeSVGViewerExtensions/3.0/"
	 x="0px" y="0px" width="512px" height="512px" viewBox="0 0 512 512" style="enable-background:new 0 0 512 512;"
	 xml:space="preserve">
<g>
	<defs>
		<rect id="SVGID_1_" width="512" height="512"/>
	</defs>
	<clipPath id="SVGID_2_">
		<use xlink:href="#SVGID_1_"  style="overflow:visible;"/>
	</clipPath>
	<path style="clip-path:url(#SVGID_2_);fill:#0D4FA6;" d="M507.3,349.9L507.3,349.9c4.3-2.4,5.9-7.9,3.5-12.2l-17.4-31.5
		c-2.4-4.3-7.9-5.9-12.2-3.5c-4.3,2.4-5.9,7.9-3.5,12.2l17.4,31.5C497.5,350.7,503,352.3,507.3,349.9"/>
	<path style="clip-path:url(#SVGID_2_);fill:#0D4FA6;" d="M446.2,332.3L446.2,332.3c-2.4-4.3-0.8-9.8,3.5-12.2l31.5-17.4
		c4.3-2.4,9.8-0.8,12.2,3.5c2.4,4.3,0.8,9.8-3.5,12.2l-31.5,17.4C454.1,338.2,448.6,336.7,446.2,332.3"/>
	<path style="clip-path:url(#SVGID_2_);fill:#0D4FA6;" d="M474.7,319C452.3,419.2,362.9,494.1,256,494.1
		c-106.9,0-195.6-73.9-218-174.1l-18,1c22.7,110.2,119.1,191,236,191c116.9,0,214.4-82.8,237-193H474.7z"/>
	<path style="clip-path:url(#SVGID_2_);fill:#0D4FA6;" d="M29,330L29,330c-5,0-9-4-9-9s4-9,9-9c4.9,0,9,4,9,9S34,330,29,330"/>
	<path style="clip-path:url(#SVGID_2_);fill:#0D4FA6;" d="M4.7,162.1L4.7,162.1c-4.3,2.4-5.9,7.9-3.5,12.2l17.4,31.5
		c2.4,4.3,7.9,5.9,12.2,3.5c4.3-2.4,5.9-7.9,3.5-12.2l-17.4-31.5C14.5,161.3,9,159.7,4.7,162.1"/>
	<path style="clip-path:url(#SVGID_2_);fill:#0D4FA6;" d="M65.8,179.7L65.8,179.7c2.4,4.3,0.8,9.8-3.5,12.2l-31.5,17.4
		c-4.3,2.4-9.8,0.8-12.2-3.5c-2.4-4.3-0.8-9.8,3.5-12.2l31.5-17.4C57.9,173.8,63.4,175.3,65.8,179.7"/>
	<path style="clip-path:url(#SVGID_2_);fill:#0D4FA6;" d="M37.3,193C59.7,92.8,149.1,17.9,256,17.9S451.6,91.8,474,192l18-1
		C469.3,80.8,372.9,0,256,0S41.6,82.8,19,193H37.3z"/>
	<path style="clip-path:url(#SVGID_2_);fill:#0D4FA6;" d="M483,182L483,182c5,0,9,4.1,9,9s-4,9-9,9s-9-4.1-9-9S478,182,483,182"/>
	<path style="clip-path:url(#SVGID_2_);fill:#0D4FA6;" d="M356.5,333.5h-201c-6.6,0-12-5.4-12-12v-130c0-6.6,5.4-12,12-12h201
		c6.6,0,12,5.4,12,12v130C368.5,328.1,363.1,333.5,356.5,333.5"/>
	<rect x="162" y="198.5" style="clip-path:url(#SVGID_2_);fill:#079DD9;" width="189" height="117"/>
	<path style="clip-path:url(#SVGID_2_);fill:#0D4FA6;" d="M191.5,120.5h-1c-4.7,0-8.5,3.8-8.5,8.5v49c0,4.7,3.8,8.5,8.5,8.5h1
		c4.7,0,8.5-3.8,8.5-8.5v-49C200,124.3,196.2,120.5,191.5,120.5"/>
	<path style="clip-path:url(#SVGID_2_);fill:#0D4FA6;" d="M321.5,120.5h-1c-4.7,0-8.5,3.8-8.5,8.5v49c0,4.7,3.8,8.5,8.5,8.5h1
		c4.7,0,8.5-3.8,8.5-8.5v-49C330,124.3,326.2,120.5,321.5,120.5"/>
	<path style="clip-path:url(#SVGID_2_);fill:#0D4FA6;" d="M256.5,120.5h-1c-4.7,0-8.5,3.8-8.5,8.5v49c0,4.7,3.8,8.5,8.5,8.5h1
		c4.7,0,8.5-3.8,8.5-8.5v-49C265,124.3,261.2,120.5,256.5,120.5"/>
	<path style="clip-path:url(#SVGID_2_);fill:#0D4FA6;" d="M190.5,325.5h-1c-4.7,0-8.5,3.8-8.5,8.5v49c0,4.7,3.8,8.5,8.5,8.5h1
		c4.7,0,8.5-3.8,8.5-8.5v-49C199,329.3,195.2,325.5,190.5,325.5"/>
	<path style="clip-path:url(#SVGID_2_);fill:#0D4FA6;" d="M320.5,325.5h-1c-4.7,0-8.5,3.8-8.5,8.5v49c0,4.7,3.8,8.5,8.5,8.5h1
		c4.7,0,8.5-3.8,8.5-8.5v-49C329,329.3,325.2,325.5,320.5,325.5"/>
	<path style="clip-path:url(#SVGID_2_);fill:#0D4FA6;" d="M255.5,325.5h-1c-4.7,0-8.5,3.8-8.5,8.5v49c0,4.7,3.8,8.5,8.5,8.5h1
		c4.7,0,8.5-3.8,8.5-8.5v-49C264,329.3,260.2,325.5,255.5,325.5"/>
</g>
</svg>
