<?xml version="1.0" encoding="iso-8859-1"?>
<!-- Generator: Adobe Illustrator 19.0.0, SVG Export Plug-In . SVG Version: 6.00 Build 0)  -->
<svg version="1.1" id="Capa_1" xmlns="http://www.w3.org/2000/svg" xmlns:xlink="http://www.w3.org/1999/xlink" x="0px" y="0px"
	 viewBox="0 0 490 490" style="enable-background:new 0 0 490 490;" xml:space="preserve">
<g>
	<path d="M368.452,0H121.553C91.895,0,67.766,24.13,67.766,53.787v382.436c0,29.658,24.129,53.777,53.787,53.777h246.899
		c29.657,0,53.782-24.119,53.782-53.777V53.787C422.234,24.13,398.109,0,368.452,0z M401.383,436.223
		c0,18.153-14.773,32.926-32.931,32.926H121.553c-18.163,0-32.936-14.773-32.936-32.926V53.787
		c0-18.163,14.773-32.936,32.936-32.936h246.899c18.158,0,32.931,14.773,32.931,32.936V436.223z"/>
	<path d="M130.319,174.017h229.362V62.553H130.319V174.017z M151.17,83.404h187.66v69.761H151.17V83.404z"/>
	<rect x="151.562" y="274.362" width="31.277" height="20.851"/>
	<rect x="229.362" y="274.362" width="31.277" height="20.851"/>
	<rect x="307.167" y="274.362" width="31.277" height="20.851"/>
	<rect x="151.562" y="340.479" width="31.277" height="20.851"/>
	<rect x="229.362" y="340.479" width="31.277" height="20.851"/>
	<rect x="307.167" y="340.479" width="31.277" height="20.851"/>
	<rect x="151.562" y="406.596" width="31.277" height="20.851"/>
	<rect x="229.362" y="406.596" width="31.277" height="20.851"/>
	<rect x="307.167" y="406.596" width="31.277" height="20.851"/>
	<rect x="290.713" y="213.764" width="62.553" height="20.851"/>
	<rect x="136.738" y="213.764" width="62.553" height="20.851"/>
</g>
<g>
</g>
<g>
</g>
<g>
</g>
<g>
</g>
<g>
</g>
<g>
</g>
<g>
</g>
<g>
</g>
<g>
</g>
<g>
</g>
<g>
</g>
<g>
</g>
<g>
</g>
<g>
</g>
<g>
</g>
</svg>
