<?xml version="1.0" standalone="no"?>
<!DOCTYPE svg PUBLIC "-//W3C//DTD SVG 20010904//EN"
 "http://www.w3.org/TR/2001/REC-SVG-20010904/DTD/svg10.dtd">
<svg version="1.0" xmlns="http://www.w3.org/2000/svg"
 width="225.000000pt" height="225.000000pt" viewBox="0 0 225.000000 225.000000"
 preserveAspectRatio="xMidYMid meet">

<g transform="translate(0.000000,225.000000) scale(0.100000,-0.100000)"
fill="#000000" stroke="none">
<path d="M0 1125 l0 -1125 1125 0 1125 0 0 1125 0 1125 -1125 0 -1125 0 0
-1125z m1100 340 c0 -8 -7 -15 -15 -15 -26 0 -35 -47 -35 -190 0 -76 4 -150
10 -164 19 -51 107 -21 158 54 25 37 38 39 35 5 -2 -19 -2 -19 8 1 15 29 59
53 113 60 45 7 46 7 46 44 0 45 -18 62 -61 58 -26 -2 -34 -9 -40 -32 -10 -35
-28 -49 -46 -34 -35 28 13 92 76 103 41 7 102 -12 117 -36 5 -8 11 -66 14
-129 5 -111 6 -115 28 -114 12 0 22 -3 22 -8 0 -5 9 -4 20 2 18 10 20 21 20
113 0 107 -3 119 -34 131 -29 10 -8 25 47 32 41 6 47 4 47 -11 0 -17 1 -17 18
-2 32 29 80 33 112 8 l30 -21 37 20 c47 25 64 25 96 0 24 -19 25 -25 29 -141
2 -102 6 -122 21 -130 33 -19 17 -29 -48 -29 -36 0 -65 3 -65 8 0 4 9 16 21
25 19 17 21 27 17 123 -2 80 -7 107 -18 114 -22 14 -35 12 -64 -11 -25 -20
-26 -24 -26 -119 0 -89 2 -100 20 -110 37 -20 20 -30 -50 -30 -70 0 -87 10
-50 30 18 10 20 21 20 119 0 129 -9 145 -65 118 l-35 -17 0 -105 c0 -94 2
-106 20 -117 35 -22 22 -29 -57 -28 -43 0 -90 -2 -105 -6 -19 -4 -32 0 -47 15
l-21 21 -32 -20 c-40 -24 -60 -25 -99 -5 -20 11 -32 26 -36 48 l-7 32 -11 -40
-12 -40 -136 -3 c-96 -2 -137 1 -137 9 0 6 9 13 19 16 27 7 31 29 31 196 0
148 -7 187 -35 187 -8 0 -15 7 -15 15 0 12 15 15 75 15 60 0 75 -3 75 -15z
m-349 -303 c97 -169 175 -308 174 -310 -2 -2 -85 51 -184 117 -100 67 -181
119 -181 117 0 -3 63 -55 140 -116 77 -61 140 -113 140 -116 0 -6 0 -6 -125
76 -127 85 -185 121 -185 117 0 -2 52 -45 115 -96 63 -51 115 -95 115 -98 0
-5 4 -8 -147 88 -68 43 -123 77 -123 76 0 -2 43 -38 95 -82 52 -43 93 -80 91
-82 -2 -2 -28 11 -57 30 -30 18 -72 44 -94 57 l-40 23 55 -56 54 -57 -193 0
c-107 0 -191 4 -189 9 9 24 353 611 357 611 3 -1 85 -139 182 -308z m1288 181
c13 -25 -5 -53 -34 -53 -15 0 -26 7 -30 20 -13 41 43 70 64 33z m-745 -363
c14 -5 26 -17 26 -26 0 -16 -1 -16 -18 -1 -21 19 -38 22 -47 7 -3 -5 11 -17
32 -27 65 -31 51 -88 -19 -81 -27 2 -34 8 -36 28 l-4 25 22 -22 c24 -27 33
-28 50 -8 10 12 5 17 -27 32 -42 20 -54 50 -27 70 21 16 17 15 48 3z m548 -14
c9 -13 10 -36 2 -36 -3 0 -14 10 -24 22 -15 19 -20 20 -34 9 -20 -17 -21 -74
-1 -91 12 -10 20 -9 40 4 26 17 34 9 13 -12 -20 -20 -65 -14 -82 10 -23 32
-20 65 9 94 26 26 60 26 77 0z m-782 -1 c10 -12 9 -19 -3 -38 -13 -21 -13 -25
5 -50 20 -27 20 -27 0 -27 -12 0 -23 9 -27 19 -3 11 -13 25 -22 33 -14 11 -15
9 -11 -20 4 -27 2 -32 -16 -32 -19 0 -21 6 -21 65 l0 65 41 0 c25 0 47 -6 54
-15z m138 -9 c4 -17 3 -18 -19 -2 -31 22 -49 20 -49 -4 0 -11 5 -20 10 -20 6
0 10 5 10 10 0 6 5 10 10 10 6 0 10 -13 10 -30 0 -16 -4 -30 -10 -30 -5 0 -10
5 -10 10 0 6 -4 10 -10 10 -5 0 -10 -9 -10 -20 0 -26 45 -28 59 -3 13 24 21
13 10 -14 -7 -20 -16 -23 -61 -23 -40 0 -49 3 -40 12 16 16 15 91 0 107 -11
10 -2 12 42 9 44 -2 55 -7 58 -22z m255 4 c6 -24 -5 -26 -23 -5 -18 21 -40 19
-40 -5 0 -22 15 -27 23 -7 3 6 5 -4 5 -23 0 -19 -2 -29 -5 -22 -8 19 -23 14
-23 -8 0 -25 26 -26 52 -3 18 16 23 8 12 -21 -4 -11 -19 -16 -53 -16 l-46 0 0
65 0 65 46 0 c38 0 48 -4 52 -20z m114 -48 l22 -62 -23 0 c-19 0 -22 4 -18 25
3 21 0 25 -18 25 -18 0 -21 -4 -18 -25 5 -21 1 -25 -20 -25 -18 0 -22 3 -15
13 6 6 18 36 28 65 9 30 22 51 28 49 7 -2 22 -31 34 -65z m142 50 c7 -14 6
-25 -4 -39 -13 -19 -12 -24 6 -47 20 -26 20 -26 0 -26 -11 0 -22 9 -26 19 -3
11 -13 25 -22 33 -14 11 -15 9 -11 -20 4 -27 2 -32 -16 -32 -19 0 -21 6 -21
65 l0 65 42 0 c31 0 45 -5 52 -18z m203 6 c-20 -20 -14 -38 14 -38 23 0 26 3
22 25 -4 20 -1 25 16 25 19 0 21 -6 21 -65 0 -59 -2 -65 -21 -65 -17 0 -20 5
-16 30 4 27 1 30 -22 30 -28 0 -36 -26 -14 -48 9 -9 7 -12 -12 -12 -24 0 -25
3 -25 65 0 62 1 65 25 65 19 0 21 -3 12 -12z"/>
<path d="M1343 1170 c-25 -15 -33 -27 -33 -48 0 -53 38 -67 84 -31 20 16 26
29 26 60 0 34 -3 39 -22 39 -13 0 -38 -9 -55 -20z"/>
<path d="M1981 1324 c0 -11 3 -14 6 -6 3 7 2 16 -1 19 -3 4 -6 -2 -5 -13z"/>
<path d="M1000 945 c0 -20 4 -26 18 -23 9 2 17 12 17 23 0 11 -8 21 -17 23
-14 3 -18 -3 -18 -23z"/>
<path d="M1520 926 c0 -9 5 -16 10 -16 6 0 10 4 10 9 0 6 -4 13 -10 16 -5 3
-10 -1 -10 -9z"/>
<path d="M1650 945 c0 -20 4 -26 18 -23 9 2 17 12 17 23 0 11 -8 21 -17 23
-14 3 -18 -3 -18 -23z"/>
</g>
</svg>
