<svg width="24px" height="24px" viewBox="0 0 24 24" fill="none" xmlns="http://www.w3.org/2000/svg">
<path d="M6.44998 11.85C6.35029 11.8495 6.2517 11.8291 6.15998 11.79C5.97894 11.7149 5.83508 11.571 5.75998 11.39C5.70095 11.2531 5.68464 11.1016 5.71319 10.9552C5.74174 10.8089 5.81382 10.6746 5.91998 10.57C5.98653 10.4988 6.06868 10.444 6.15998 10.41C6.29993 10.3431 6.45717 10.3213 6.61003 10.3476C6.76289 10.3738 6.90386 10.4468 7.01353 10.5564C7.1232 10.6661 7.19618 10.8071 7.2224 10.9599C7.24863 11.1128 7.22682 11.27 7.15998 11.41C7.12593 11.5013 7.07116 11.5834 6.99998 11.65C6.92639 11.7185 6.83978 11.7715 6.74529 11.8058C6.65081 11.8402 6.55038 11.8552 6.44998 11.85Z" fill="black"/>
<path d="M10.42 19.92C8.6894 19.92 6.99768 19.4068 5.55875 18.4453C4.11982 17.4839 2.99831 16.1173 2.33604 14.5185C1.67377 12.9196 1.50049 11.1603 1.83812 9.46295C2.17574 7.76561 3.00909 6.20651 4.2328 4.9828C5.45651 3.75909 7.01561 2.92574 8.71295 2.58812C10.4103 2.25049 12.1696 2.42377 13.7685 3.08604C15.3673 3.74831 16.7339 4.86982 17.6953 6.30875C18.6568 7.74768 19.17 9.4394 19.17 11.17C19.17 13.4906 18.2481 15.7162 16.6072 17.3572C14.9662 18.9981 12.7406 19.92 10.42 19.92ZM10.42 3.91999C8.98607 3.91999 7.58436 4.34519 6.3921 5.14183C5.19985 5.93847 4.2706 7.07077 3.72186 8.39553C3.17312 9.7203 3.02955 11.178 3.30929 12.5844C3.58904 13.9908 4.27953 15.2826 5.29346 16.2965C6.30739 17.3104 7.59922 18.0009 9.00558 18.2807C10.4119 18.5604 11.8697 18.4168 13.1944 17.8681C14.5192 17.3194 15.6515 16.3901 16.4481 15.1979C17.2448 14.0056 17.67 12.6039 17.67 11.17C17.6673 9.24798 16.9027 7.40545 15.5436 6.04638C14.1845 4.68732 12.342 3.92263 10.42 3.91999Z" fill="black"/>
<path d="M10.27 7.99998C10.0681 8.00027 9.87418 7.92127 9.72998 7.77998C9.59047 7.63462 9.51177 7.44145 9.50998 7.23998C9.51578 7.15709 9.53609 7.07586 9.56998 6.99998C9.61144 6.90962 9.66529 6.82548 9.72998 6.74998C9.87785 6.61991 10.068 6.54816 10.265 6.54816C10.4619 6.54816 10.6521 6.61991 10.8 6.74998C10.8788 6.82281 10.9462 6.90709 11 6.99998C11.0342 7.0897 11.0544 7.18413 11.06 7.27998C11.0603 7.48186 10.9813 7.67578 10.84 7.81998C10.6809 7.95232 10.4762 8.01695 10.27 7.99998Z" fill="black"/>
<path d="M14.28 11.65C14.1802 11.6503 14.0815 11.6299 13.99 11.59C13.8987 11.5559 13.8165 11.5012 13.75 11.43C13.6792 11.361 13.6215 11.2797 13.58 11.19C13.548 11.0966 13.5312 10.9987 13.53 10.9C13.5302 10.7011 13.6093 10.5105 13.75 10.37C13.8906 10.2295 14.0812 10.1506 14.28 10.1506C14.4787 10.1506 14.6694 10.2295 14.81 10.37C14.877 10.4438 14.931 10.5283 14.97 10.62C15.0099 10.7079 15.0304 10.8034 15.03 10.9C15.0303 10.9998 15.0099 11.0985 14.97 11.19C14.9321 11.2792 14.8778 11.3606 14.81 11.43C14.6683 11.5689 14.4784 11.6477 14.28 11.65Z" fill="black"/>
<path d="M10.27 15.66C10.0681 15.6603 9.87418 15.5813 9.72998 15.44C9.58929 15.2995 9.51015 15.1088 9.50998 14.91C9.51429 14.712 9.59281 14.5228 9.72998 14.38C9.87686 14.2479 10.0674 14.1748 10.265 14.1748C10.4625 14.1748 10.6531 14.2479 10.8 14.38C10.9389 14.5217 11.0177 14.7116 11.02 14.91C11.0198 15.1088 10.9407 15.2995 10.8 15.44C10.6583 15.5789 10.4684 15.6577 10.27 15.66Z" fill="black"/>
<path d="M21.58 19.92H10C9.80109 19.92 9.61032 19.841 9.46967 19.7003C9.32902 19.5597 9.25 19.3689 9.25 19.17C9.25 18.9711 9.32902 18.7803 9.46967 18.6397C9.61032 18.499 9.80109 18.42 10 18.42H21.58C21.7789 18.42 21.9697 18.499 22.1103 18.6397C22.251 18.7803 22.33 18.9711 22.33 19.17C22.33 19.3689 22.251 19.5597 22.1103 19.7003C21.9697 19.841 21.7789 19.92 21.58 19.92Z" fill="black"/>
</svg>
